<svg id="layer" xmlns="http://www.w3.org/2000/svg" viewBox="0 0 599.9 86.9"><defs><style>.cls-1{fill:#fff;}</style></defs><path class="cls-1" d="M58.5,333.4a23.48,23.48,0,0,0-.1-2.6c-.8-3.8-3.8-7-8-7-6.6,0-9.6,6-9.6,13.2,0,8.3,4.1,12.7,9.6,12.7a7.77,7.77,0,0,0,7.7-6.5,21,21,0,0,0,.3-3.6v-6.2Zm19.9-47.6v61.3c0,6.8.2,13.6.4,17.3H61.1l-.8-7.4h-.2c-3.7,6.2-10.2,8.6-16.5,8.6-12.6,0-23.1-11-23.1-28.1-.1-18.3,11.5-28.8,24.4-28.8,6,0,11,1.8,13.4,5.2h.2V285.8Z" transform="translate(-20.5 -278.8)"/><path class="cls-1" d="M94.1,328.3c0-8.6-.2-13.8-.4-18.4h17l.7,9.9h.4c2.9-8.3,9.8-11.1,14.5-11.1a12.64,12.64,0,0,1,4,.4v18.7a23,23,0,0,0-5.1-.6c-5.9,0-9.8,2.4-10.9,6.9a17.19,17.19,0,0,0-.3,3.4v26.9H94.1Z" transform="translate(-20.5 -278.8)"/><path class="cls-1" d="M177,328.4c0-7.2-.2-13.5-.4-18.5h17.1l.9,7h.4a19.55,19.55,0,0,1,16.3-8.2c12.7,0,19.6,8.6,19.6,23.6v32.1H211V334.7c0-6.3-2.2-10-7-10-3.9,0-5.7,2.7-6.5,4.8a11.81,11.81,0,0,0-.5,4v30.9H177Z" transform="translate(-20.5 -278.8)"/><path class="cls-1" d="M266,332.1h.2c1.2-2.4,2.3-4.6,3.5-6.6l9-15.5h23.8l-18.8,21.9,21.6,32.5H280.7L270,343.6l-4,5.3v15.5H246.1V285.8H266Z" transform="translate(-20.5 -278.8)"/><path class="cls-1" d="M342.7,339.5c-8.1,0-12.7,2.3-12.7,7.1,0,3.4,2.3,5.2,5.6,5.2a7.39,7.39,0,0,0,6.9-5,13.68,13.68,0,0,0,.2-2.9Zm19.4,11.6c0,5.4.2,10.5.9,13.3H345.1l-1.1-4.8h-.3c-3.9,4.3-9.3,6-15.2,6-11.1,0-17.9-8.1-17.9-17.2,0-14.6,13.1-21,31.5-21.1v-.4c0-2.2-1.6-4.7-8.8-4.7a32.93,32.93,0,0,0-15.4,4.1l-3.5-12.7c3.5-1.8,11.3-4.9,22.6-4.9,18.7,0,25.2,10.4,25.2,24v18.4Z" transform="translate(-20.5 -278.8)"/><path class="cls-1" d="M390.1,310l3.2,20c.9,5.4,1.8,11.6,2.6,18h.2c1-6.4,2.5-12.7,3.6-17.9l4.3-20.2h15.6l4.1,19.4c1.3,6.1,2.7,12.3,3.7,18.7h.2c.7-6.4,1.6-12.7,2.6-18.9l3.3-19.2H453l-16,54.5H418.2l-3.7-16.2c-1.1-5.1-1.9-9.6-3-16.6h-.2a115.4,115.4,0,0,1-2.9,16.4l-4,16.4H385.6L369.9,310Z" transform="translate(-20.5 -278.8)"/><path class="cls-1" d="M490.3,339.5c-8.1,0-12.7,2.3-12.7,7.1,0,3.4,2.3,5.2,5.7,5.2a7.39,7.39,0,0,0,6.9-5,13.68,13.68,0,0,0,.2-2.9v-4.4Zm19.4,11.6c0,5.4.2,10.5.9,13.3H492.7l-1.1-4.8h-.3c-3.9,4.3-9.3,6-15.1,6-11.1,0-17.9-8.1-17.9-17.2,0-14.6,13.1-21,31.6-21.1v-.4c0-2.2-1.7-4.7-8.9-4.7a32.93,32.93,0,0,0-15.4,4.1l-3.5-12.7c3.5-1.8,11.3-4.9,22.6-4.9,18.7,0,25.2,10.4,25.2,24v18.4Z" transform="translate(-20.5 -278.8)"/><path class="cls-1" d="M524.6,328.3c0-8.6-.2-13.8-.5-18.4h17.1l.7,9.9h.5c2.9-8.3,9.8-11.1,14.5-11.1a12.33,12.33,0,0,1,4,.4v18.7a23,23,0,0,0-5.1-.6c-5.9,0-9.8,2.4-10.8,6.9a17.19,17.19,0,0,0-.3,3.4v26.9H524.8V328.3Z" transform="translate(-20.5 -278.8)"/><path class="cls-1" d="M602.1,330.7c0-3.1-1.4-8.9-7.7-8.9-5.9,0-8.2,5.4-8.5,8.9Zm-16,13.5c.7,4.3,7,6.7,13.9,6.7a46.32,46.32,0,0,0,14.9-2.1l2.6,13.3a53.27,53.27,0,0,1-20.4,3.6c-19.2,0-30-10.6-30-27.9,0-12.7,8.2-29,28.2-29,17.6,0,25.1,13,25.1,27.9a35.85,35.85,0,0,1-.8,7.5Z" transform="translate(-20.5 -278.8)"/><rect class="cls-1" x="120.9" y="31.1" width="19.7" height="54.5"/><path class="cls-1" d="M151.1,302c-6.6,0-11.2-4.9-11.2-11.6s4.7-11.6,11.3-11.6,11.2,4.6,11.3,11.6c0,6.8-4.6,11.6-11.3,11.6Z" transform="translate(-20.5 -278.8)"/></svg>